HIERARCHY
ROOT Root
{
  OFFSET 0.0 0.0 0.0
  CHANNELS 6 Xposition Yposition Zposition Zrotation Yrotation Xrotation
  JOINT Hips
  {
    OFFSET 0.0 100.0 0.0
    CHANNELS 6 Xposition Yposition Zposition Zrotation Yrotation Xrotation
    JOINT Spine1
    {
      OFFSET 5.003913 -0.037094 -0.013727
      CHANNELS 3 Zrotation Yrotation Xrotation
      JOINT Spine2
      {
        OFFSET 7.125363 -1e-06 0.0
        CHANNELS 3 Zrotation Yrotation Xrotation
        JOINT Chest
        {
          OFFSET 7.594027 1e-06 0.0
          CHANNELS 3 Zrotation Yrotation Xrotation
          JOINT Neck1
          {
            OFFSET 26.313086 -0.460272 -0.181672
            CHANNELS 3 Zrotation Yrotation Xrotation
            JOINT Neck2
            {
              OFFSET 8.045911 0.0 0.0
              CHANNELS 3 Zrotation Yrotation Xrotation
              JOINT Head
              {
                OFFSET 6.432774 0.0 0.0
                CHANNELS 3 Zrotation Yrotation Xrotation
                JOINT HeadEnd
                {
                  OFFSET 16.169773 0.06451 0.00362
                  CHANNELS 3 Zrotation Yrotation Xrotation
                }
                JOINT Jaw
                {
                  OFFSET 0.108741 3.12938 0.002639
                  CHANNELS 3 Zrotation Yrotation Xrotation
                }
                JOINT LeftEye
                {
                  OFFSET 4.45173 8.166359 3.206392
                  CHANNELS 3 Zrotation Yrotation Xrotation
                }
                JOINT RightEye
                {
                  OFFSET 4.436895 8.135758 -3.222429
                  CHANNELS 3 Zrotation Yrotation Xrotation
                }
              }
            }
          }
          JOINT LeftShoulder
          {
            OFFSET 23.218927 5.195579 1.621656
            CHANNELS 3 Zrotation Yrotation Xrotation
            JOINT LeftArm
            {
              OFFSET 15.902118 2e-06 -2e-06
              CHANNELS 3 Zrotation Yrotation Xrotation
              JOINT LeftForeArm
              {
                OFFSET 28.739307 0.0 -1e-06
                CHANNELS 3 Zrotation Yrotation Xrotation
                JOINT LeftHand
                {
                  OFFSET 27.093981 -4e-06 0.0
                  CHANNELS 3 Zrotation Yrotation Xrotation
                  JOINT LeftHandThumb1
                  {
                    OFFSET 2.276781 3.380274 0.83384
                    CHANNELS 3 Zrotation Yrotation Xrotation
                    JOINT LeftHandThumb2
                    {
                      OFFSET 4.705309 -1e-06 -1e-06
                      CHANNELS 3 Zrotation Yrotation Xrotation
                      JOINT LeftHandThumb3
                      {
                        OFFSET 2.798515 0.0 3e-06
                        CHANNELS 3 Zrotation Yrotation Xrotation
                        JOINT LeftHandThumbEnd
                        {
                          OFFSET 3.180793 4e-06 -4e-06
                          CHANNELS 3 Zrotation Yrotation Xrotation
                        }
                      }
                    }
                  }
                  JOINT LeftHandIndex1
                  {
                    OFFSET 3.247786 2.352677 0.137192
                    CHANNELS 3 Zrotation Yrotation Xrotation
                    JOINT LeftHandIndex2
                    {
                      OFFSET 6.367095 1e-06 0.0
                      CHANNELS 3 Zrotation Yrotation Xrotation
                      JOINT LeftHandIndex3
                      {
                        OFFSET 3.662364 0.0 0.0
                        CHANNELS 3 Zrotation Yrotation Xrotation
                        JOINT LeftHandIndex4
                        {
                          OFFSET 2.329242 4e-06 -4e-06
                          CHANNELS 3 Zrotation Yrotation Xrotation
                          JOINT LeftHandIndexEnd
                          {
                            OFFSET 2.767823 1e-06 0.0
                            CHANNELS 3 Zrotation Yrotation Xrotation
                          }
                        }
                      }
                    }
                  }
                  JOINT LeftHandMiddle1
                  {
                    OFFSET 3.163612 0.945023 -0.406112
                    CHANNELS 3 Zrotation Yrotation Xrotation
                    JOINT LeftHandMiddle2
                    {
                      OFFSET 6.276789 3e-06 0.0
                      CHANNELS 3 Zrotation Yrotation Xrotation
                      JOINT LeftHandMiddle3
                      {
                        OFFSET 4.35652 -1e-06 4e-06
                        CHANNELS 3 Zrotation Yrotation Xrotation
                        JOINT LeftHandMiddle4
                        {
                          OFFSET 2.996877 0.0 8e-06
                          CHANNELS 3 Zrotation Yrotation Xrotation
                          JOINT LeftHandMiddleEnd
                          {
                            OFFSET 2.323256 3e-06 -4e-06
                            CHANNELS 3 Zrotation Yrotation Xrotation
                          }
                        }
                      }
                    }
                  }
                  JOINT LeftHandRing1
                  {
                    OFFSET 2.882606 -0.309162 0.107445
                    CHANNELS 3 Zrotation Yrotation Xrotation
                    JOINT LeftHandRing2
                    {
                      OFFSET 6.033198 0.0 4e-06
                      CHANNELS 3 Zrotation Yrotation Xrotation
                      JOINT LeftHandRing3
                      {
                        OFFSET 4.350578 3e-06 0.0
                        CHANNELS 3 Zrotation Yrotation Xrotation
                        JOINT LeftHandRing4
                        {
                          OFFSET 2.651321 2e-06 -7e-06
                          CHANNELS 3 Zrotation Yrotation Xrotation
                          JOINT LeftHandRingEnd
                          {
                            OFFSET 1.937663 1e-06 -4e-06
                            CHANNELS 3 Zrotation Yrotation Xrotation
                          }
                        }
                      }
                    }
                  }
                  JOINT LeftHandPinky1
                  {
                    OFFSET 2.865315 -1.525436 0.575687
                    CHANNELS 3 Zrotation Yrotation Xrotation
                    JOINT LeftHandPinky2
                    {
                      OFFSET 5.54936 1e-06 -8e-06
                      CHANNELS 3 Zrotation Yrotation Xrotation
                      JOINT LeftHandPinky3
                      {
                        OFFSET 3.070974 0.0 -4e-06
                        CHANNELS 3 Zrotation Yrotation Xrotation
                        JOINT LeftHandPinky4
                        {
                          OFFSET 1.549672 1e-06 0.0
                          CHANNELS 3 Zrotation Yrotation Xrotation
                          JOINT LeftHandPinkyEnd
                          {
                            OFFSET 1.952123 0.0 0.0
                            CHANNELS 3 Zrotation Yrotation Xrotation
                          }
                        }
                      }
                    }
                  }
                }
              }
            }
          }
          JOINT RightShoulder
          {
            OFFSET 23.161716 5.296122 -1.380114
            CHANNELS 3 Zrotation Yrotation Xrotation
            JOINT RightArm
            {
              OFFSET -16.027195 -2e-06 1.1e-05
              CHANNELS 3 Zrotation Yrotation Xrotation
              JOINT RightForeArm
              {
                OFFSET -28.736639 4e-06 2e-06
                CHANNELS 3 Zrotation Yrotation Xrotation
                JOINT RightHand
                {
                  OFFSET -27.133619 6e-06 0.0
                  CHANNELS 3 Zrotation Yrotation Xrotation
                  JOINT RightHandThumb1
                  {
                    OFFSET -2.274328 -3.351035 -0.83067
                    CHANNELS 3 Zrotation Yrotation Xrotation
                    JOINT RightHandThumb2
                    {
                      OFFSET -4.703594 -3e-06 2e-06
                      CHANNELS 3 Zrotation Yrotation Xrotation
                      JOINT RightHandThumb3
                      {
                        OFFSET -2.794935 -4e-06 -3e-06
                        CHANNELS 3 Zrotation Yrotation Xrotation
                        JOINT RightHandThumbEnd
                        {
                          OFFSET -3.183852 4e-06 1e-06
                          CHANNELS 3 Zrotation Yrotation Xrotation
                        }
                      }
                    }
                  }
                  JOINT RightHandIndex1
                  {
                    OFFSET -3.253496 -2.33755 -0.127667
                    CHANNELS 3 Zrotation Yrotation Xrotation
                    JOINT RightHandIndex2
                    {
                      OFFSET -6.344434 0.0 0.0
                      CHANNELS 3 Zrotation Yrotation Xrotation
                      JOINT RightHandIndex3
                      {
                        OFFSET -3.654871 0.0 -8e-06
                        CHANNELS 3 Zrotation Yrotation Xrotation
                        JOINT RightHandIndex4
                        {
                          OFFSET -2.327586 -1e-06 0.0
                          CHANNELS 3 Zrotation Yrotation Xrotation
                          JOINT RightHandIndexEnd
                          {
                            OFFSET -2.770001 3e-06 8e-06
                            CHANNELS 3 Zrotation Yrotation Xrotation
                          }
                        }
                      }
                    }
                  }
                  JOINT RightHandMiddle1
                  {
                    OFFSET -3.168223 -0.944764 0.411762
                    CHANNELS 3 Zrotation Yrotation Xrotation
                    JOINT RightHandMiddle2
                    {
                      OFFSET -6.266691 -1e-06 -4e-06
                      CHANNELS 3 Zrotation Yrotation Xrotation
                      JOINT RightHandMiddle3
                      {
                        OFFSET -4.348901 0.0 0.0
                        CHANNELS 3 Zrotation Yrotation Xrotation
                        JOINT RightHandMiddle4
                        {
                          OFFSET -3.00024 2e-06 -4e-06
                          CHANNELS 3 Zrotation Yrotation Xrotation
                          JOINT RightHandMiddleEnd
                          {
                            OFFSET -2.321477 -4e-06 -4e-06
                            CHANNELS 3 Zrotation Yrotation Xrotation
                          }
                        }
                      }
                    }
                  }
                  JOINT RightHandRing1
                  {
                    OFFSET -2.885654 0.293261 -0.119232
                    CHANNELS 3 Zrotation Yrotation Xrotation
                    JOINT RightHandRing2
                    {
                      OFFSET -6.032835 -1e-06 -4e-06
                      CHANNELS 3 Zrotation Yrotation Xrotation
                      JOINT RightHandRing3
                      {
                        OFFSET -4.33881 0.0 -4e-06
                        CHANNELS 3 Zrotation Yrotation Xrotation
                        JOINT RightHandRing4
                        {
                          OFFSET -2.654903 -4e-06 -4e-06
                          CHANNELS 3 Zrotation Yrotation Xrotation
                          JOINT RightHandRingEnd
                          {
                            OFFSET -1.935122 0.0 4e-06
                            CHANNELS 3 Zrotation Yrotation Xrotation
                          }
                        }
                      }
                    }
                  }
                  JOINT RightHandPinky1
                  {
                    OFFSET -2.866241 1.503904 -0.60527
                    CHANNELS 3 Zrotation Yrotation Xrotation
                    JOINT RightHandPinky2
                    {
                      OFFSET -5.553177 -2e-06 0.0
                      CHANNELS 3 Zrotation Yrotation Xrotation
                      JOINT RightHandPinky3
                      {
                        OFFSET -3.062664 -1e-06 -4e-06
                        CHANNELS 3 Zrotation Yrotation Xrotation
                        JOINT RightHandPinky4
                        {
                          OFFSET -1.546529 2e-06 4e-06
                          CHANNELS 3 Zrotation Yrotation Xrotation
                          JOINT RightHandPinkyEnd
                          {
                            OFFSET -1.952341 0.0 -4e-06
                            CHANNELS 3 Zrotation Yrotation Xrotation
                          }
                        }
                      }
                    }
                  }
                }
              }
            }
          }
        }
      }
    }
    JOINT LeftLeg
    {
      OFFSET -8.443107 2.567604 10.043214
      CHANNELS 3 Zrotation Yrotation Xrotation
      JOINT LeftShin
      {
        OFFSET 43.229198 1e-06 -1e-06
        CHANNELS 3 Zrotation Yrotation Xrotation
        JOINT LeftFoot
        {
          OFFSET 42.298611 1e-06 1e-06
          CHANNELS 3 Zrotation Yrotation Xrotation
          JOINT LeftToeBase
          {
            OFFSET 14.165858 1e-06 0.0
            CHANNELS 3 Zrotation Yrotation Xrotation
            JOINT LeftToeEnd
            {
              OFFSET 6.7141 -0.234461 0.0
              CHANNELS 3 Zrotation Yrotation Xrotation
            }
          }
        }
      }
    }
    JOINT RightLeg
    {
      OFFSET -8.303923 2.592729 -10.047278
      CHANNELS 3 Zrotation Yrotation Xrotation
      JOINT RightShin
      {
        OFFSET -43.369682 0.0 1e-06
        CHANNELS 3 Zrotation Yrotation Xrotation
        JOINT RightFoot
        {
          OFFSET -42.260784 4e-06 2e-06
          CHANNELS 3 Zrotation Yrotation Xrotation
          JOINT RightToeBase
          {
            OFFSET -14.222245 -2e-06 -1e-06
            CHANNELS 3 Zrotation Yrotation Xrotation
            JOINT RightToeEnd
            {
              OFFSET -6.660062 0.232574 -2e-06
              CHANNELS 3 Zrotation Yrotation Xrotation
            }
          }
        }
      }
    }
  }
}
MOTION
Frames: 4
Frame Time: 0.03333333333333333
0.0 0.0 0.0 0.0 -0.0 0.0 20.041908 9.798235 8.633186 71.092918 24.705341 64.146515 35.173061 0.99084 1.195146 12.211933 -1.230118 0.023111 75.504959 -1.323014 3.760231 88.399765 0.742668 -6.617583 -3.769271 -10.70528 15.481703 -17.712288 0.669884 8.79391 6e-06 0.0 1e-06 -0.47138 0.065695 0.894816 2.710138 0.206164 0.554415 0.759851 -0.006713 1.155148 -86.457962 -49.547432 102.552544 63.908344 -6.627968 -85.200829 93.763901 0.440093 2.948044 -8.374662 16.011911 17.965197 17.636625 -26.322725 52.411171 -19.46665 -14.395594 29.410378 -1e-06 -8.774819 -2e-06 14.604695 -16.702585 6.15125 -0.609776 -1.795652 -3.889327 -4.807087 -11.04681 -2.937849 5e-06 -20.976015 1e-06 -5.01997 -25.033556 -4.031879 6e-06 1e-06 -1e-06 -10.634532 -5.686968 -3.565587 10.573271 -17.922951 -3.113899 3e-06 -13.821205 1e-06 -0.501778 -31.181501 -4.027013 -7.160655 -56.34021 4.150237 -13.982711 -7.150196 -2.875041 13.772727 -8.401492 -3.21824 0.347734 -34.211544 0.771657 -0.963029 -17.733366 2.621021 0.0 -0.0 0.0 -17.346413 -20.095213 -4.201781 21.757555 -1.638374 3.866428 1e-06 -6.338821 1e-06 -1.697589 -22.591742 -6.194003 -0.0 -5e-06 -2e-06 109.923531 -64.124245 88.789909 52.191204 11.948674 -127.4095 91.935181 -6.061361 3.963287 -7.171221 65.361786 -33.086987 22.182106 -20.375891 49.933308 -16.701811 -16.743525 28.476526 -3e-06 -12.690598 -0.0 13.637145 -17.299891 4.234471 -0.105921 -1.513855 -4.275881 -5.039039 -5.612871 -2.953557 5e-06 -11.02052 -2e-06 -6.111293 -15.895328 -3.840472 0.0 1e-06 1e-06 -10.283369 -5.680287 -4.341836 11.028292 -11.302404 -2.372633 -1.384267 -14.238577 -6.320121 -0.625436 -26.924187 -3.8276 -3.119102 -52.196865 -4.811357 -13.708522 -7.363474 -3.72094 18.141148 -14.052735 -3.242675 6e-06 -18.787266 -1e-06 -0.429712 -8.456041 2.555502 -0.0 1e-06 0.0 -15.923528 -20.094479 -5.473586 30.419197 -7.190823 1.735926 3e-06 -8.162925 -1e-06 -1.861902 -22.861464 -6.167941 2e-06 -2e-06 0.0 117.361694 -17.054611 -55.017338 157.881744 13.990115 13.169811 -87.873291 29.738367 -25.342255 -4.458381 0.084058 -0.329264 -0.999999 1e-06 1e-06 -90.110809 -32.884563 49.596718 160.60704 -5.039465 2.439963 41.886765 3.270913 88.42038 -8.120569 0.107891 1.382175 -1.000002 -0.0 -1e-06 
0.0 0.0 0.0 0.0 -0.0 0.0 20.56385 8.513439 8.568415 55.710556 36.898312 55.761677 35.080631 1.328338 1.800754 15.369999 -0.357727 0.361035 86.435158 -1.685258 6.856946 90.333511 2.073846 -2.534261 -3.932087 -13.610213 15.337647 -17.693998 0.055917 6.84875 7e-06 -1e-06 -1e-06 -0.540916 0.150236 1.200712 3.828811 0.315548 0.915766 1.342919 0.020119 1.427696 -87.771049 -47.105289 105.644287 60.567852 -2.418756 -82.281944 89.430717 -1.223622 2.306669 -8.085327 16.710056 16.633158 17.636633 -26.322742 52.411221 -19.466665 -14.395604 29.410402 0.0 -8.774824 -1e-06 14.938857 -16.837317 5.853977 -0.609777 -1.795654 -3.889329 -4.807091 -11.046813 -2.937851 4e-06 -20.976021 -1e-06 -5.019972 -25.03356 -4.031883 6e-06 0.0 -1e-06 -10.634537 -5.686973 -3.565589 10.573277 -17.922955 -3.113903 2e-06 -13.821211 1e-06 -0.501778 -31.181511 -4.027019 -7.834104 -56.129784 4.515651 -13.982717 -7.150198 -2.875043 13.772732 -8.401494 -3.218244 0.347732 -34.211559 0.771655 -0.963029 -17.733372 2.621019 0.0 0.0 -0.0 -17.346424 -20.095222 -4.201783 21.757565 -1.638374 3.866427 1e-06 -6.338825 1e-06 -1.69759 -22.591755 -6.194009 -0.0 -5e-06 -2e-06 111.190948 -69.372955 87.35585 41.086033 10.11172 -125.560394 105.535622 -5.809577 3.712519 -10.544068 74.320114 -33.666027 22.182123 -20.375898 49.933323 -16.701817 -16.74353 28.476534 -1e-06 -12.690603 -2e-06 13.254401 -18.446396 4.105789 -0.105919 -1.513856 -4.275882 -5.039041 -5.612873 -2.953558 3e-06 -11.020525 -2e-06 -6.111301 -15.895334 -3.840469 0.0 0.0 1e-06 -10.283374 -5.680288 -4.341838 11.028297 -11.302406 -2.372633 -1.384269 -14.238585 -6.32012 -0.625437 -26.924194 -3.827601 -3.238899 -51.163868 -5.773527 -13.708527 -7.363478 -3.72094 18.141153 -14.052742 -3.242674 7e-06 -18.787271 -2e-06 -0.429712 -8.456047 2.555504 1e-06 -1e-06 -0.0 -15.923539 -20.094486 -5.473585 30.419224 -7.190828 1.735929 2e-06 -8.162929 -1e-06 -1.861905 -22.861479 -6.167943 0.0 -2e-06 -2e-06 127.170036 -18.340744 -66.794647 137.642624 17.402828 9.422724 -89.418991 23.673847 -21.231962 -1.092574 -0.272399 -0.195089 -0.999997 1e-06 0.0 -77.93898 -30.603519 51.275097 148.082626 -3.867674 4.346345 58.143654 4.519528 96.18824 -7.710203 0.24219 1.336122 -1.000003 -1e-06 1e-06 
0.0 0.0 0.0 0.0 -0.0 0.0 20.945305 6.97605 8.614202 38.208843 44.492393 43.878029 30.738258 2.218531 2.42312 16.875999 0.412532 0.531252 101.572365 -2.512884 9.030793 90.702751 2.811113 -0.343392 -4.202579 -16.129072 14.41939 -17.345842 -0.89016 8.164557 5e-06 -2e-06 -1e-06 -0.643421 0.17002 1.470563 5.174328 0.473706 1.150988 2.013453 -0.140674 1.749625 -87.867744 -44.969543 107.347672 56.625603 1.739203 -81.794281 86.962395 -3.489807 0.857945 -7.943923 16.319803 15.196465 17.636635 -26.322748 52.411221 -19.466667 -14.395606 29.410402 -2e-06 -8.774826 -1e-06 15.552537 -17.336927 5.562826 -0.609777 -1.795653 -3.889329 -4.807091 -11.046816 -2.93785 4e-06 -20.976025 0.0 -5.019974 -25.033571 -4.031881 6e-06 0.0 0.0 -10.634538 -5.686973 -3.565589 10.573278 -17.922958 -3.113902 2e-06 -13.821214 2e-06 -0.501779 -31.181522 -4.027016 -9.287833 -56.067921 5.489964 -13.982719 -7.1502 -2.875043 13.772735 -8.401498 -3.218243 0.347732 -34.211563 0.771657 -0.96303 -17.733381 2.621021 -0.0 0.0 0.0 -17.346424 -20.095224 -4.201783 21.757568 -1.638376 3.866429 1e-06 -6.338825 1e-06 -1.697591 -22.591755 -6.194008 -0.0 -6e-06 -2e-06 109.960129 -73.745842 88.792908 30.94285 7.438906 -124.539963 119.156502 -4.694767 1.90796 20.013895 81.610817 8.015531 22.182127 -20.375895 49.933323 -16.701817 -16.743532 28.476538 -1e-06 -12.690606 -2e-06 12.705533 -19.065517 3.539474 -0.10592 -1.513857 -4.27588 -5.039043 -5.612874 -2.953555 3e-06 -11.020528 -3e-06 -6.111301 -15.895338 -3.840473 -1e-06 -0.0 1e-06 -10.283374 -5.680291 -4.34184 11.028296 -11.302407 -2.372633 -1.384272 -14.238586 -6.320124 -0.62544 -26.924198 -3.827605 -3.498503 -48.444302 -5.091611 -13.70853 -7.36348 -3.72094 18.141155 -14.052741 -3.242675 5e-06 -18.787275 -3e-06 -0.42971 -8.456048 2.555502 1e-06 1e-06 -0.0 -15.923543 -20.094492 -5.473585 30.419224 -7.190827 1.735932 2e-06 -8.162929 -2e-06 -1.861903 -22.861475 -6.167947 -1e-06 -3e-06 -1e-06 136.194809 -20.903858 -67.071594 123.239799 18.522987 5.29064 -85.028435 25.138447 -18.37491 0.431393 -0.116875 0.350739 -0.999996 -0.0 2e-06 -67.214111 -28.603682 51.549244 135.340942 -2.740784 4.870023 74.735291 1.607889 104.18351 -6.726321 0.31918 1.562795 -1.000001 1e-06 0.0 
0.0 0.0 0.0 0.0 -0.0 0.0 21.341356 6.122792 8.832835 22.170368 46.975128 32.381424 24.959507 3.305726 2.224263 14.436597 0.907187 0.481872 118.713226 -3.196667 10.446475 90.849899 3.273964 0.028829 -4.613481 -18.693983 13.900179 -17.998728 -1.689945 9.466548 6e-06 2e-06 -0.0 -0.749648 0.045276 1.57516 6.212399 0.559716 1.311467 2.474632 -0.500698 1.794747 -87.136757 -43.177044 107.532028 53.76403 4.637371 -81.313316 84.919266 -4.031128 -0.198104 -7.659292 15.228443 14.931384 17.636625 -26.322729 52.411194 -19.466661 -14.395596 29.410389 0.0 -8.774821 -1e-06 16.245375 -17.348892 5.02061 -0.609777 -1.795654 -3.889327 -4.807087 -11.046809 -2.93785 4e-06 -20.976011 -1e-06 -5.019969 -25.033552 -4.031881 6e-06 0.0 -0.0 -10.634533 -5.686969 -3.565587 10.573274 -17.922951 -3.1139 3e-06 -13.821206 1e-06 -0.501778 -31.181505 -4.027015 -9.830182 -55.931046 5.738717 -13.982713 -7.150197 -2.875043 13.772727 -8.40149 -3.21824 0.347733 -34.211536 0.771655 -0.963029 -17.733366 2.62102 -0.0 -0.0 -0.0 -17.346415 -20.095213 -4.201782 21.757555 -1.638373 3.866428 1e-06 -6.338821 1e-06 -1.69759 -22.591738 -6.194005 0.0 -5e-06 -2e-06 104.871132 -75.723244 94.990425 26.870108 5.438854 -124.922577 131.07016 -2.56509 -0.051875 68.398087 78.005676 68.347832 22.182106 -20.375879 49.933296 -16.701815 -16.743528 28.476526 -5e-06 -12.6906 -0.0 12.653517 -19.232723 3.222305 -0.105919 -1.513854 -4.27588 -5.03904 -5.61287 -2.953556 6e-06 -11.020519 -3e-06 -6.111294 -15.895328 -3.84047 0.0 2e-06 -0.0 -10.283367 -5.680285 -4.341836 11.028292 -11.302402 -2.372633 -1.384266 -14.238575 -6.320121 -0.625433 -26.924183 -3.827602 -3.449223 -45.648033 -5.081976 -13.708523 -7.363473 -3.720938 18.141151 -14.052736 -3.242676 9e-06 -18.787266 -4e-06 -0.42971 -8.456045 2.555502 -1e-06 2e-06 0.0 -15.923534 -20.094479 -5.473583 30.419205 -7.190826 1.735924 4e-06 -8.162925 -2e-06 -1.8619 -22.861462 -6.16794 -0.0 -6e-06 -1e-06 142.793869 -23.734741 -62.845284 112.701385 19.078447 2.264346 -79.208481 26.35103 -15.802621 1.019025 0.146348 0.883988 -0.999998 -0.0 -1e-06 -59.308315 -28.168024 48.021847 122.68248 -1.359805 4.617599 88.422882 -6.369901 104.677116 -6.747955 0.20133 1.538945 -1.000002 1e-06 1e-06 
